<?xml version="1.0" ?><svg id="Layer_1" style="enable-background:new 0 0 100 100;" version="1.1" viewBox="0 0 100 100" xml:space="preserve" xmlns="http://www.w3.org/2000/svg" xmlns:xlink="http://www.w3.org/1999/xlink"><style type="text/css">
	.st0{fill:#AAB4BE;}
	.st1{fill:#E62526;}
	.st2{fill:#5AA526;}
	.st3{fill:#FC8F30;}
	.st4{fill:#0E6CAA;}
	.st5{fill:#1AB2E8;}
	.st6{fill:#1E64DC;}
	.st7{fill:#2D2D37;}
	.st8{fill:#1478FE;}
	.st9{fill:#2D649B;}
	.st10{fill:#0087AF;}
	.st11{fill:#F87F14;}
	.st12{fill:#19B4EB;}
	.st13{fill:#00A578;}
	.st14{fill:#5A9B69;}
	.st15{fill:#3C5A9B;}
	.st16{fill:#00AAEB;}
	.st17{fill:#EB4924;}
	.st18{fill:#987160;}
	.st19{fill:#286991;}
	.st20{fill:#A5C83C;}
	.st21{fill:#84BD00;}
	.st22{fill:#D70046;}
	.st23{fill:#FA4878;}
	.st24{fill:#9AC24E;}
	.st25{fill:#3B6FB8;}
	.st26{fill:#E24292;}
	.st27{fill:#448AFD;}
	.st28{fill:#9B479F;}
	.st29{fill:#0DAB62;}
	.st30{fill:#FFD34E;}
	.st31{fill:#E04A3F;}
	.st32{fill:#0078C8;}
	.st33{fill:#21759B;}
	.st34{fill:#CB2027;}
	.st35{fill:#04CC47;}
	.st36{fill:#007EE5;}
	.st37{fill:#FF7D00;}
	.st38{fill:#EA4C89;}
	.st39{fill:#A52300;}
	.st40{fill:#F55A1E;}
	.st41{fill:#008CC8;}
	.st42{fill:#2DA0FF;}
	.st43{fill:#009650;}
	.st44{fill:#002D8C;}
	.st45{fill:#4600AA;}
	.st46{fill:#FF4600;}
	.st47{fill:none;stroke:#0F64C8;stroke-width:2;stroke-linecap:round;stroke-linejoin:round;stroke-miterlimit:10;}
</style><g><path class="st7" d="M50,96c25.4,0,46-20.6,46-46C96,24.7,75.3,4,50,4C24.6,4,4,24.7,4,50C4,75.4,24.6,96,50,96z M50,6   c24.2,0,44,19.7,44,44S74.2,94,50,94C25.7,94,6,74.3,6,50S25.7,6,50,6z"/></g><g><path d="M50.3,76.4c-0.1,0-0.3,0-0.4,0c-0.1,0-0.2,0-0.3,0c-3.6,0-5.9-1.6-8-3.1c-1.3-0.9-2.5-1.8-3.9-2c-0.7-0.1-1.4-0.2-2.1-0.2   c-1.2,0-2.2,0.2-2.9,0.3c-0.5,0.1-1,0.2-1.4,0.2c-1.2,0-1.6-0.8-1.8-1.3c-0.1-0.5-0.2-0.9-0.3-1.3c-0.1-0.3-0.2-0.8-0.3-1   c-4.5-0.7-6.9-1.7-7.5-3.2c-0.1-0.2-0.1-0.4-0.2-0.7c0-0.8,0.5-1.5,1.3-1.6c7.4-1.2,10.8-8.9,10.9-9.2c0.4-0.8,0.5-1.4,0.3-1.8   c-0.4-0.9-2-1.4-2.9-1.7c-0.3-0.1-0.6-0.2-0.8-0.3c-2.9-1.1-3.3-2.5-3.1-3.5c0.3-1.8,2.9-2.6,4.2-2c0.9,0.4,1.7,0.7,2.4,0.7   c0.3,0,0.5,0,0.7-0.1c0-0.3,0-0.6-0.1-0.9l0-0.1c-0.2-3.9-0.5-8.7,0.7-11.6c3.8-8.6,11.9-9.2,14.3-9.2l1.1,0   c2.4,0,10.5,0.7,14.3,9.2c1.3,2.9,1,7.7,0.7,11.6l0,0.2c0,0.3,0,0.6-0.1,0.9c0.1,0,0.3,0.1,0.6,0.1c0.6,0,1.3-0.2,2.2-0.7   c0.5-0.2,0.9-0.3,1.3-0.3c0.5,0,0.9,0.1,1.3,0.3c1.2,0.4,1.9,1.3,2,2.3c0,1.3-1,2.3-3.1,3.2c-0.2,0.1-0.5,0.2-0.8,0.3   c-0.9,0.3-2.5,0.8-2.9,1.7c-0.2,0.4-0.1,1,0.3,1.7l0,0.1c0.1,0.3,3.5,8,10.9,9.2c0.8,0.1,1.4,0.8,1.3,1.7c0,0.2-0.1,0.5-0.2,0.7   c-0.6,1.5-3,2.5-7.5,3.2c-0.1,0.3-0.2,0.8-0.3,1c-0.1,0.4-0.2,0.9-0.3,1.3c-0.2,0.8-0.9,1.3-1.7,1.3c-0.4,0-0.9-0.1-1.4-0.2   c-0.8-0.2-1.8-0.3-2.9-0.3c-0.7,0-1.4,0.1-2.1,0.2c-1.3,0.2-2.5,1.1-3.9,2C56.2,74.7,53.9,76.4,50.3,76.4z M49.9,74.3L49.9,74.3   c0.2,0,0.3,0,0.4,0c3,0,4.8-1.3,6.8-2.7c1.4-1,2.9-2.1,4.7-2.4c0.8-0.1,1.6-0.2,2.4-0.2c1.3,0,2.4,0.2,3.3,0.3   c0.4,0.1,0.7,0.1,0.9,0.1c0.1-0.4,0.2-0.7,0.2-1c0.3-1.2,0.5-2.4,1.7-2.6c3.9-0.6,5.4-1.3,5.9-1.8c-8-1.7-11.7-9.9-11.8-10.3   c-0.6-1.2-0.7-2.4-0.3-3.4c0.7-1.7,2.8-2.4,4.1-2.8c0.3-0.1,0.5-0.2,0.7-0.2c1.5-0.6,1.8-1.1,1.8-1.2c0-0.1-0.2-0.3-0.7-0.5   c-0.4-0.2-0.8-0.2-1-0.1c-1.1,0.5-2.1,0.8-3.1,0.8c-1.4-0.1-2.1-0.6-2.3-0.8l-0.3-0.3l0-0.4c0-0.5,0.1-1,0.1-1.5l0-0.2   c0.2-3.7,0.5-8.2-0.6-10.7c-3.3-7.5-10.4-8.1-12.5-8.1l-0.1,0l0,0c0,0-0.9,0-1,0c-2.1,0-9.2,0.6-12.5,8c-1.1,2.4-0.8,7-0.6,10.7   l0,0.1c0,0.5,0.1,1.1,0.1,1.5l0,0.4l-0.3,0.3c-0.2,0.2-0.9,0.8-2.4,0.8c-1,0-2.1-0.3-3.3-0.8c0,0-0.1,0-0.2,0   c-0.6,0-1.1,0.4-1.2,0.6c0,0.1,0.3,0.6,1.8,1.3c0.2,0.1,0.4,0.2,0.7,0.2c1.4,0.4,3.4,1.1,4.1,2.8c0.4,1,0.3,2.1-0.3,3.4   c-0.1,0.3-3.7,8.5-11.8,10.3c0.5,0.4,2,1.1,5.9,1.8c1.1,0.2,1.4,1.4,1.7,2.6c0.1,0.3,0.2,0.7,0.3,1.1c0.2,0,0.5-0.1,0.9-0.1   c0.8-0.1,1.9-0.4,3.3-0.4c0.8,0,1.6,0.1,2.4,0.2c1.8,0.3,3.3,1.3,4.7,2.4c2,1.4,3.9,2.7,6.8,2.7C49.7,74.4,49.7,74.4,49.9,74.3   L49.9,74.3z M23,64.3C23,64.3,23,64.3,23,64.3C23,64.3,23,64.3,23,64.3z"/></g></svg>