<svg width="178" height="164" viewBox="0 0 178 164" fill="none" xmlns="http://www.w3.org/2000/svg">
<rect width="178" height="164" rx="23" fill="white"/>
<path fill-rule="evenodd" clip-rule="evenodd" d="M78.4218 77.6391C73.0794 81.6045 62.0861 89.9608 54.7189 94.9402C47.3517 99.9196 40.8057 103.008 40.1629 103.483C39.52 103.957 40.6768 102.614 45.4946 102.614C50.3124 102.614 53.1194 103.924 56.5612 105.049C61.7937 106.759 66.5699 109.323 71.107 112.404C76.7137 116.212 83.1132 117.693 89.837 117.995C91.5284 118.071 97.8682 117.162 99.2165 116.432L99.5223 116.384C102.373 115.919 105.099 115.066 107.526 113.507C117.28 107.243 121.52 98.0833 121.668 86.9161C121.717 83.2472 120.482 79.7279 119.719 76.1606C119.61 71.4055 122.221 68.1219 125.786 65.3549C126.498 64.8012 127.188 64.21 127.945 63.7213C128.542 63.3369 128.542 63.0125 128.205 62.4373C127.163 60.6578 125.855 59.1135 124.207 57.8583C120.969 55.3165 116.536 54 112.191 54C107.296 54 102.511 55.6715 99.6756 59.1441C99.6756 59.1441 83.7643 73.6737 78.4218 77.6391Z" fill="white"/>
<path fill-rule="evenodd" clip-rule="evenodd" d="M74.4998 105.412C75.7902 105.713 77.0754 106.038 78.3719 106.311C83.1805 107.321 88.0119 107.475 92.7523 106.104C97.616 104.697 101.46 101.92 103.742 97.3399C106.705 91.3463 106.768 85.3463 103.822 79.3216C102.653 76.9303 101.198 74.7045 99.7989 72.4453C98.3273 70.0686 97.2559 67.5827 97.4805 64.7192C97.5361 64.0074 97.6104 63.302 97.8616 62.6259C98.0895 62.6108 98.2338 62.4513 98.4118 62.3406C100.155 61.2531 102.024 60.8211 104.106 61.1164C106.432 61.446 108.378 62.5221 110.204 63.8501C114.608 67.0515 117.379 71.499 119.885 76.1404C120.65 79.7038 121.887 83.2201 121.839 86.8855C121.69 98.042 117.441 107.192 107.666 113.45C105.147 115.064 102.307 115.92 99.3398 116.373C98.7948 116.37 98.2493 116.356 97.7042 116.365C93.196 116.438 89.0002 115.31 85.1387 113.079C82.1376 111.346 80.0486 110.05 77.2651 108.003C76.5262 107.46 74.9985 106.231 74.4998 105.412Z" fill="#5362BC"/>
<path fill-rule="evenodd" clip-rule="evenodd" d="M119.884 76.1394C117.378 71.4981 114.607 67.051 110.203 63.8492C108.377 62.5212 106.43 61.4451 104.106 61.1155C102.023 60.8202 100.154 61.2522 98.4105 62.3397C98.2331 62.4508 98.0888 62.6099 97.8608 62.6254C101.239 52.7644 116.417 51.6216 124.381 57.8547C126.033 59.1086 127.344 60.6515 128.387 62.4293C128.725 63.0039 128.725 63.328 128.127 63.712C127.368 64.2003 126.678 64.7909 125.963 65.344C122.392 68.1084 119.774 71.3888 119.884 76.1394Z" fill="#2C3039"/>
<path fill-rule="evenodd" clip-rule="evenodd" d="M74.4989 105.41C74.9977 106.229 82.1367 111.344 85.1379 113.077C88.9993 115.308 93.1951 116.437 97.7034 116.363C98.2484 116.354 98.7939 116.368 99.3389 116.372C97.9878 117.1 91.6348 118.009 89.9399 117.933C83.202 117.631 76.7892 116.152 71.1708 112.347C66.6243 109.269 61.8381 106.708 56.5948 104.999C53.1457 103.875 49.608 103.111 45.9829 102.769C45.797 102.752 45.6195 102.736 45.5046 102.567C45.5551 102.535 45.6018 102.483 45.656 102.474C52.2042 101.368 58.7599 100.646 65.3563 102.124C68.081 103.062 70.807 103.996 73.528 104.944C73.8656 105.061 74.1757 105.253 74.4989 105.41Z" fill="#E2E8F0"/>
<path d="M45.6563 102.475C52.2046 101.369 58.7603 100.647 65.3567 102.125C65.9664 102.335 66.5762 102.544 67.186 102.754C69.3012 103.482 71.4163 104.209 73.5284 104.945C73.7593 105.025 73.9774 105.14 74.1955 105.255C74.2963 105.308 74.3972 105.361 74.4993 105.411C74.9113 105.507 75.3228 105.605 75.7343 105.704L75.7343 105.704C76.6116 105.914 77.489 106.124 78.3715 106.31C83.18 107.32 88.0115 107.474 92.7519 106.103C97.6155 104.696 101.46 101.92 103.741 97.339C103.749 97.2545 103.756 97.17 103.763 97.0856L103.763 97.0853C103.777 96.9038 103.792 96.7226 103.817 96.5426C105.52 83.6215 98.2811 73.8689 84.4261 75.1644C82.7079 75.4332 79.9085 76.5751 78.5013 77.6165L40.1631 103.435C41.5339 103.284 44.3964 102.732 45.6563 102.475Z" fill="#3D498C"/>
</svg>
